<?xml version="1.0" encoding="UTF-8"?>
<svg width="375px" height="1096px" viewBox="0 0 375 1096" version="1.1" xmlns="http://www.w3.org/2000/svg" xmlns:xlink="http://www.w3.org/1999/xlink">
    <!-- Generator: Sketch 61.2 (89653) - https://sketch.com -->
    <title>Path 3</title>
    <desc>Created with Sketch.</desc>
    <defs>
        <path d="M39.7955656,22.6853509 C89.5323263,31.0700621 139.088258,43.9277667 188.463362,61.2584649 C262.526017,87.2545122 327.713001,72.4416656 358.955339,48.1756851 C390.197678,23.9097045 436.260698,0 448.928592,0 C457.373854,0 472.985291,312.666667 495.7629,938 C502.697796,988.08721 482.697796,998.797481 435.7629,970.130814 C365.360557,927.130814 323.2004,1089.48628 206.98165,1098.13081 C90.7629003,1106.77535 39.7955656,1033.88081 27.9738378,991.130814 C20.0926859,962.630814 10.7680733,649.87862 0,52.8742316 L39.7955656,22.6853509 Z" id="path-1"></path>
        <filter x="-3.4%" y="-3.4%" width="106.8%" height="106.8%" filterUnits="objectBoundingBox" id="filter-3">
            <feGaussianBlur stdDeviation="12" in="SourceGraphic"></feGaussianBlur>
        </filter>
    </defs>
    <g id="Layout" stroke="none" stroke-width="1" fill="none" fill-rule="evenodd">
        <g id="Mobile_home-01" transform="translate(0.000000, -463.000000)">
            <g id="BG" transform="translate(-75.000000, 72.000000)">
                <g id="Path-3" transform="translate(14.000000, 388.000000)">
                    <mask id="mask-2" fill="white">
                        <use xlink:href="#path-1"></use>
                    </mask>
                    <use id="Path-2" fill="#CA3E7B" xlink:href="#path-1"></use>
                    <ellipse id="Oval" fill="#BE3D75" filter="url(#filter-3)" mask="url(#mask-2)" cx="146.5" cy="925" rx="529.5" ry="529"></ellipse>
                    <circle id="Oval" fill="#CA3E7B" mask="url(#mask-2)" cx="174.5" cy="1062.5" r="651.5"></circle>
                </g>
            </g>
        </g>
    </g>
</svg>